<svg width="23" height="22" viewBox="0 0 23 22" fill="none" xmlns="http://www.w3.org/2000/svg">
<path d="M22.12 14.8948L20.4526 13.2274L18.7853 14.8948" stroke="#1EC781" stroke-width="1.5" stroke-linecap="round" stroke-linejoin="round"/>
<path d="M20.4526 13.2274V15.4506C20.4526 17.2925 18.9597 18.7853 17.1179 18.7853" stroke="#1EC781" stroke-width="1.5" stroke-linecap="round" stroke-linejoin="round"/>
<path d="M1 7.11377L2.66737 8.78114L4.33474 7.11377" stroke="#1EC781" stroke-width="1.5" stroke-linecap="round" stroke-linejoin="round"/>
<path d="M2.66736 8.78116V6.558C2.66736 4.71612 4.16021 3.22327 6.0021 3.22327" stroke="#1EC781" stroke-width="1.5" stroke-linecap="round" stroke-linejoin="round"/>
<path fill-rule="evenodd" clip-rule="evenodd" d="M10.2683 15.4895C11.6233 15.674 12.6716 16.8234 12.6716 18.2295C12.6716 19.7635 11.4266 21.0085 9.89262 21.0085H3.78004C2.55175 21.0085 1.55688 20.0136 1.55688 18.7853C1.55688 17.557 2.55175 16.5622 3.78004 16.5622C3.78004 14.7203 5.27289 13.2274 7.11478 13.2274C8.57873 13.2274 9.82036 14.1745 10.2683 15.4895Z" stroke="#1EC781" stroke-width="1.5" stroke-linecap="round" stroke-linejoin="round"/>
<path fill-rule="evenodd" clip-rule="evenodd" d="M19.1598 3.26206C20.5148 3.44659 21.563 4.59707 21.563 6.00211C21.563 7.53609 20.3181 8.78105 18.7841 8.78105H12.6715C11.4432 8.78105 10.4484 7.78619 10.4484 6.5579C10.4484 5.3296 11.4432 4.33474 12.6715 4.33474C12.6715 2.49285 14.1644 1 16.0063 1C17.4702 1 18.713 1.94707 19.1598 3.26206Z" stroke="#1EC781" stroke-width="1.5" stroke-linecap="round" stroke-linejoin="round"/>
</svg>
