<svg width="22" height="22" viewBox="0 0 22 22" fill="none" xmlns="http://www.w3.org/2000/svg">
<path fill-rule="evenodd" clip-rule="evenodd" d="M10.9978 21V21C5.47667 21 1 16.5233 1 11.0022V10.9978C1 5.47667 5.47667 1 10.9978 1H11.0022C16.5233 1 21 5.47667 21 10.9978V10.9978C21 16.5222 16.5222 21 10.9978 21Z" stroke="#1EC781" stroke-width="1.5" stroke-linecap="round" stroke-linejoin="round"/>
<path d="M17.099 10.4445L15.4323 8.77783L13.7656 10.4445" stroke="#1EC781" stroke-width="1.5" stroke-linecap="round" stroke-linejoin="round"/>
<path d="M4.88892 11.5555L6.55558 13.2222L8.22225 11.5555" stroke="#1EC781" stroke-width="1.5" stroke-linecap="round" stroke-linejoin="round"/>
<path d="M6.55554 13.2222V8.77776C6.55554 7.54999 7.54999 6.55554 8.77776 6.55554H12.1111" stroke="#1EC781" stroke-width="1.5" stroke-linecap="round" stroke-linejoin="round"/>
<path d="M15.4322 8.77783V13.2223C15.4322 14.4445 14.4322 15.4445 13.21 15.4445H9.88892" stroke="#1EC781" stroke-width="1.5" stroke-linecap="round" stroke-linejoin="round"/>
</svg>
