<svg width="24" height="22" viewBox="0 0 24 22" fill="none" xmlns="http://www.w3.org/2000/svg">
<path d="M21.3891 11.411C23.5369 13.5588 23.5369 17.0413 21.3891 19.1891C19.2412 21.337 15.7588 21.337 13.6109 19.1891C11.463 17.0413 11.463 13.5588 13.6109 11.411C15.7588 9.26308 19.2412 9.26308 21.3891 11.411" stroke="#1EC781" stroke-width="1.5" stroke-linecap="round" stroke-linejoin="round"/>
<path d="M9.6526 3.74445C9.6493 3.74445 9.6471 3.74665 9.6471 3.74995C9.6471 3.75325 9.6493 3.75545 9.6526 3.75545C9.6559 3.75545 9.6581 3.75325 9.6581 3.74995C9.6581 3.74665 9.6559 3.74445 9.6526 3.74445" stroke="#1EC781" stroke-width="1.5" stroke-linecap="round" stroke-linejoin="round"/>
<path d="M6.85969 3.74445C6.85639 3.74445 6.85419 3.74665 6.85419 3.74995C6.85419 3.75325 6.85639 3.75545 6.85969 3.75545C6.86299 3.75545 6.86519 3.75325 6.86519 3.74995C6.86519 3.74665 6.86299 3.74445 6.85969 3.74445" stroke="#1EC781" stroke-width="1.5" stroke-linecap="round" stroke-linejoin="round"/>
<path d="M4.0569 3.73896C4.0536 3.73896 4.0514 3.74116 4.0514 3.74446C4.0514 3.74776 4.0536 3.74996 4.0569 3.74996C4.0602 3.74996 4.0624 3.74776 4.0624 3.74446C4.0624 3.74116 4.0602 3.73896 4.0569 3.73896" stroke="#1EC781" stroke-width="1.5" stroke-linecap="round" stroke-linejoin="round"/>
<path d="M1 6.49995H19.7" stroke="#1EC781" stroke-width="1.5" stroke-linecap="round" stroke-linejoin="round"/>
<path d="M19.7 10.2587V3.2C19.7 1.9845 18.7155 1 17.5 1H3.2C1.9845 1 1 1.9845 1 3.2V15.3C1 16.5155 1.9845 17.5 3.2 17.5H12.4598" stroke="#1EC781" stroke-width="1.5" stroke-linecap="round" stroke-linejoin="round"/>
<path d="M19.9442 14.0779L16.8884 17.1337L15.0558 15.3" stroke="#1EC781" stroke-width="1.5" stroke-linecap="round" stroke-linejoin="round"/>
</svg>
