<svg width="24" height="23" viewBox="0 0 24 23" fill="none" xmlns="http://www.w3.org/2000/svg">
<path fill-rule="evenodd" clip-rule="evenodd" d="M16.8889 18.1111H2.22222C1.54756 18.1111 1 17.5636 1 16.8889V7.11114C1 6.43647 1.54756 5.88892 2.22222 5.88892H16.8889C17.5636 5.88892 18.1111 6.43647 18.1111 7.11114V16.8889C18.1111 17.5636 17.5636 18.1111 16.8889 18.1111Z" stroke="#1EC781" stroke-width="1.5" stroke-linecap="round" stroke-linejoin="round"/>
<path d="M5.27777 21.7777H13.8333" stroke="#1EC781" stroke-width="1.5" stroke-linecap="round" stroke-linejoin="round"/>
<path d="M17.8056 21.7778H21.7778C22.4524 21.7778 23 21.2302 23 20.5556V2.22222C23 1.54756 22.4524 1 21.7778 1H13.8333C13.1587 1 12.6111 1.54756 12.6111 2.22222V4.89522" stroke="#1EC781" stroke-width="1.5" stroke-linecap="round" stroke-linejoin="round"/>
<path d="M9.55555 18.1111V21.7778" stroke="#1EC781" stroke-width="1.5" stroke-linecap="round" stroke-linejoin="round"/>
</svg>
