<svg width="30" height="30" viewBox="0 0 30 30" fill="none" xmlns="http://www.w3.org/2000/svg">
<path fill-rule="evenodd" clip-rule="evenodd" d="M9.375 3.75H20.63C23.7337 3.75 26.25 6.26625 26.25 9.37V20.6313C26.25 23.7338 23.7337 26.25 20.63 26.25H9.37C6.26625 26.25 3.75 23.7337 3.75 20.63V9.375C3.75 6.26875 6.26875 3.75 9.375 3.75V3.75Z" stroke="#29AB67" stroke-width="1.5" stroke-linecap="round" stroke-linejoin="round"/>
<path d="M10.15 13.875V20.625" stroke="white" stroke-width="1.5" stroke-linecap="round" stroke-linejoin="round"/>
<path d="M14.6487 20.625V16.6875C14.6487 15.1337 15.9075 13.875 17.4612 13.875V13.875C19.015 13.875 20.2737 15.1337 20.2737 16.6875V20.625" stroke="white" stroke-width="1.5" stroke-linecap="round" stroke-linejoin="round"/>
<path d="M10.1475 9.79749C9.9925 9.79749 9.86625 9.92374 9.8675 10.0787C9.8675 10.2337 9.99375 10.36 10.1487 10.36C10.3037 10.36 10.43 10.2337 10.43 10.0787C10.43 9.92249 10.3037 9.79749 10.1475 9.79749" stroke="white" stroke-width="1.5" stroke-linecap="round" stroke-linejoin="round"/>
</svg>
