<svg width="261" height="45" viewBox="0 0 261 45" fill="none" xmlns="http://www.w3.org/2000/svg">
<path d="M36.6238 2.46455L19.6521 0.306126C19.3668 0.25943 19.1333 0.228304 18.7286 0.181607C17.5978 0.00659192 16.451 -0.042133 15.3094 0.0363289C7.27752 0.705648 0.781494 8.69078 0.781494 14.092V32.3349C0.781494 36.522 5.23843 44.7458 13.7528 44.2685C14.391 44.2321 15.1537 44.1647 15.4079 44.118C16.2692 43.952 16.8867 43.8482 18.0022 43.6407L36.7795 40.0762C43.0057 38.9347 45.8594 31.6137 45.9164 26.778V11.3525C45.932 6.20546 41.9732 3.13387 36.6238 2.46455ZM44.4066 26.4511C44.4066 31.1934 41.4595 37.622 35.7988 38.7116L18.4329 41.8921C11.1689 43.3449 4.91676 36.2263 4.91676 31.484V14.6524C4.91676 8.94503 11.9368 1.20893 20.0309 1.90938L35.8248 3.98479C40.9459 4.7008 44.417 7.41958 44.417 12.1671L44.4066 26.4511Z" fill="#41F28C"/>
<path d="M126.769 34.0263C123.74 34.0195 120.836 32.816 118.691 30.678C116.545 28.54 115.331 25.6406 115.313 22.6116V6.00832C115.314 5.27942 115.604 4.58076 116.12 4.06535C116.635 3.54993 117.334 3.25976 118.063 3.25839H118.12C118.849 3.25976 119.547 3.54993 120.063 4.06535C120.578 4.58076 120.868 5.27942 120.87 6.00832V12.5666L121.15 12.3954C122.587 11.5393 124.476 11.1034 126.769 11.1034C129.808 11.1034 132.722 12.3104 134.87 14.4589C137.018 16.6074 138.225 19.5213 138.225 22.5597C138.225 25.5981 137.018 28.512 134.87 30.6605C132.722 32.809 129.808 34.016 126.769 34.016V34.0263ZM126.769 16.707C125.401 16.7001 124.072 17.1682 123.011 18.0315C121.949 18.8948 121.22 20.0998 120.947 21.4409C120.675 22.7819 120.877 24.1759 121.518 25.3849C122.159 26.5939 123.199 27.543 124.462 28.0702C125.725 28.5974 127.132 28.6701 128.442 28.2757C129.752 27.8814 130.885 27.0446 131.647 25.9081C132.41 24.7715 132.754 23.4058 132.621 22.0438C132.488 20.6818 131.887 19.4081 130.92 18.44C130.383 17.8828 129.738 17.4416 129.024 17.1435C128.31 16.8455 127.543 16.6969 126.769 16.707Z" fill="white"/>
<path d="M171.935 34.0262C171.208 34.0181 170.514 33.7258 170 33.2119C169.486 32.6979 169.193 32.0031 169.185 31.2763V20.754C169.185 19.6683 168.754 18.627 167.986 17.8593C167.219 17.0916 166.177 16.6603 165.092 16.6603C164.006 16.6603 162.965 17.0916 162.197 17.8593C161.429 18.627 160.998 19.6683 160.998 20.754V31.2763C160.987 32.0014 160.695 32.6939 160.182 33.2072C159.67 33.7204 158.978 34.0142 158.253 34.0262C157.883 34.0332 157.515 33.9646 157.173 33.8245C156.83 33.6844 156.52 33.4759 156.261 33.2116C155.995 32.9653 155.786 32.6653 155.645 32.3316C155.505 31.9979 155.437 31.6382 155.446 31.2763V20.754C155.446 19.671 155.016 18.6324 154.25 17.8666C153.484 17.1009 152.446 16.6706 151.363 16.6706C150.28 16.6706 149.241 17.1009 148.475 17.8666C147.71 18.6324 147.279 19.671 147.279 20.754V31.2763C147.288 31.6399 147.219 32.0011 147.077 32.3358C146.934 32.6704 146.722 32.9708 146.454 33.2168C146.206 33.4762 145.907 33.6819 145.576 33.8212C145.245 33.9604 144.889 34.0302 144.529 34.0262H144.472C144.112 34.029 143.755 33.9582 143.423 33.8181C143.091 33.678 142.792 33.4716 142.542 33.2116C142.276 32.9655 142.066 32.6657 141.924 32.3321C141.783 31.9984 141.714 31.6386 141.722 31.2763V20.754C141.727 18.1985 142.744 15.7488 144.551 13.9418C146.358 12.1348 148.807 11.1179 151.363 11.1137C154.222 11.1137 156.489 11.9958 158.108 13.708L158.248 13.8585L158.383 13.708C159.976 11.9698 162.238 11.1137 165.097 11.1137C167.652 11.1179 170.102 12.1348 171.909 13.9418C173.716 15.7488 174.733 18.1985 174.737 20.754V31.2763C174.743 31.6363 174.674 31.9936 174.537 32.3264C174.4 32.6592 174.196 32.9604 173.938 33.2116C173.685 33.4727 173.382 33.6796 173.046 33.8197C172.711 33.9597 172.351 34.03 171.987 34.0262H171.935Z" fill="white"/>
<path d="M76.7518 34.0262C73.893 34.0262 71.6256 33.1442 70.0068 31.4319L69.8667 31.2815L69.7318 31.4319C68.1389 33.1701 65.8767 34.0262 63.0178 34.0262C60.4623 34.0221 58.0127 33.0051 56.2057 31.1981C54.3986 29.3911 53.3816 26.9414 53.3775 24.386V13.8636C53.3718 13.5044 53.4398 13.1478 53.5773 12.8158C53.7147 12.4839 53.9186 12.1836 54.1766 11.9335C54.4284 11.6707 54.7315 11.4624 55.0671 11.3214C55.4026 11.1804 55.7635 11.1097 56.1275 11.1137C56.4976 11.1018 56.8659 11.1692 57.2078 11.3115C57.5497 11.4538 57.8571 11.6677 58.1095 11.9387C58.3694 12.1864 58.5752 12.4854 58.7136 12.8168C58.852 13.1481 58.9202 13.5046 58.9137 13.8636V24.386C58.9137 25.4717 59.345 26.5129 60.1127 27.2807C60.8804 28.0484 61.9217 28.4797 63.0074 28.4797C64.0931 28.4797 65.1344 28.0484 65.9022 27.2807C66.6699 26.5129 67.1012 25.4717 67.1012 24.386V13.8636C67.1119 13.1385 67.4043 12.446 67.9166 11.9328C68.4289 11.4195 69.1208 11.1258 69.8459 11.1137C70.2165 11.1065 70.5845 11.1755 70.9273 11.3165C71.27 11.4576 71.5801 11.6676 71.8383 11.9335C72.1039 12.1785 72.3141 12.4774 72.4546 12.8104C72.5951 13.1433 72.6627 13.5024 72.6529 13.8636V24.386C72.6529 24.9222 72.7585 25.4532 72.9637 25.9486C73.1689 26.444 73.4697 26.8941 73.8489 27.2733C74.2281 27.6525 74.6782 27.9533 75.1736 28.1585C75.669 28.3637 76.2 28.4693 76.7363 28.4693C77.2725 28.4693 77.8035 28.3637 78.2989 28.1585C78.7943 27.9533 79.2445 27.6525 79.6236 27.2733C80.0028 26.8941 80.3036 26.444 80.5088 25.9486C80.714 25.4532 80.8196 24.9222 80.8196 24.386V13.8636C80.811 13.5001 80.8801 13.1389 81.0224 12.8042C81.1647 12.4696 81.3768 12.1691 81.6446 11.9231C81.893 11.6637 82.1921 11.458 82.5232 11.3188C82.8543 11.1796 83.2104 11.1098 83.5695 11.1137H83.6266C83.9873 11.111 84.3447 11.1824 84.6767 11.3234C85.0087 11.4644 85.3082 11.6721 85.5567 11.9335C85.8231 12.1782 86.034 12.477 86.1754 12.8099C86.3168 13.1428 86.3854 13.5021 86.3765 13.8636V24.386C86.3724 26.9414 85.3554 29.3911 83.5484 31.1981C81.7414 33.0051 79.2918 34.0221 76.7363 34.0262H76.7518Z" fill="white"/>
<path d="M198.324 34.0264C197.964 34.0292 197.607 33.9583 197.275 33.8183C196.943 33.6782 196.643 33.4718 196.394 33.2118C196.141 32.9781 195.938 32.6957 195.797 32.3817L195.704 32.1638L195.517 32.309C194.044 33.4505 192.077 34.0264 189.675 34.0264C187.412 34.0244 185.2 33.3516 183.32 32.0931C181.439 30.8347 179.974 29.047 179.109 26.9559C178.244 24.8649 178.018 22.5643 178.46 20.345C178.902 18.1257 179.992 16.0872 181.592 14.4871C183.192 12.887 185.23 11.7971 187.45 11.3551C189.669 10.9131 191.969 11.1389 194.061 12.004C196.152 12.869 197.939 14.3344 199.198 16.2151C200.456 18.0958 201.129 20.3073 201.131 22.5702V31.2765C201.138 31.6406 201.068 32.002 200.926 32.3372C200.783 32.6724 200.572 32.9739 200.306 33.2222C200.057 33.4799 199.757 33.6842 199.426 33.8225C199.095 33.9607 198.74 34.0301 198.381 34.0264H198.324ZM189.654 16.6708C188.288 16.666 186.963 17.1353 185.905 17.9985C184.847 18.8617 184.12 20.0653 183.85 21.4041C183.581 22.7429 183.783 24.1339 184.425 25.3398C185.066 26.5456 186.106 27.4917 187.366 28.0165C188.627 28.5413 190.031 28.6124 191.339 28.2177C192.646 27.8229 193.776 26.9868 194.536 25.8519C195.295 24.717 195.638 23.3536 195.505 21.9944C195.371 20.6352 194.771 19.3643 193.805 18.3986C193.267 17.8431 192.622 17.4033 191.908 17.1062C191.194 16.8091 190.427 16.6609 189.654 16.6708Z" fill="white"/>
<path d="M221.216 34.0264C220.852 34.0303 220.49 33.9601 220.154 33.82C219.818 33.68 219.514 33.4731 219.26 33.2118C218.997 32.9638 218.788 32.6635 218.648 32.3303C218.508 31.997 218.439 31.638 218.445 31.2765V20.8113C218.503 20.2341 218.439 19.6512 218.258 19.1002C218.077 18.5491 217.782 18.0422 217.393 17.612C217.004 17.1819 216.529 16.8381 215.999 16.6027C215.469 16.3674 214.895 16.2459 214.315 16.2459C213.735 16.2459 213.161 16.3674 212.631 16.6027C212.101 16.8381 211.626 17.1819 211.237 17.612C210.848 18.0422 210.553 18.5491 210.372 19.1002C210.191 19.6512 210.127 20.2341 210.185 20.8113V31.2765C210.192 31.6405 210.122 32.0019 209.98 32.3372C209.838 32.6724 209.626 32.9739 209.36 33.2222C209.111 33.4799 208.811 33.6842 208.48 33.8224C208.149 33.9607 207.794 34.0301 207.435 34.0264H207.378C207.018 34.0292 206.661 33.9583 206.329 33.8183C205.997 33.6782 205.697 33.4718 205.448 33.2118C205.182 32.9657 204.971 32.6659 204.83 32.3323C204.689 31.9986 204.62 31.6387 204.628 31.2765V20.8113C204.628 18.2421 205.649 15.7782 207.465 13.9615C209.282 12.1449 211.746 11.1243 214.315 11.1243C216.884 11.1243 219.348 12.1449 221.165 13.9615C222.982 15.7782 224.002 18.2421 224.002 20.8113V31.2765C223.994 32.0033 223.702 32.6981 223.188 33.212C222.674 33.726 221.979 34.0183 221.252 34.0264H221.216Z" fill="white"/>
<path d="M231.022 34.0263C230.658 34.0301 230.297 33.9599 229.96 33.8199C229.624 33.6798 229.32 33.4729 229.066 33.2117C228.803 32.9637 228.595 32.6634 228.454 32.3301C228.314 31.9968 228.245 31.6379 228.252 31.2763V13.8844C228.257 13.1513 228.551 12.4497 229.069 11.9313C229.587 11.4128 230.289 11.1192 231.022 11.1138C231.391 11.1026 231.759 11.1704 232.1 11.3127C232.441 11.455 232.747 11.6684 232.999 11.9387C233.259 12.1909 233.465 12.4935 233.604 12.8281C233.744 13.1626 233.813 13.5221 233.808 13.8844V31.2763C233.798 32.0023 233.505 32.6956 232.991 33.209C232.478 33.7224 231.785 34.0155 231.059 34.0263H231.022ZM231.022 9.49494C230.507 9.50133 229.999 9.3799 229.543 9.14155C229.086 8.90321 228.696 8.5554 228.407 8.12925C228.118 7.70309 227.939 7.21192 227.887 6.69971C227.834 6.18751 227.91 5.67028 228.106 5.19433C228.302 4.71839 228.614 4.2986 229.012 3.97257C229.411 3.64654 229.884 3.42444 230.389 3.32618C230.895 3.22791 231.417 3.25653 231.908 3.4095C232.4 3.56246 232.846 3.83497 233.207 4.20264C233.506 4.47986 233.744 4.81732 233.904 5.19289C234.064 5.56846 234.143 5.97364 234.135 6.38183C234.127 7.20496 233.797 7.99208 233.215 8.57415C232.632 9.15623 231.845 9.48683 231.022 9.49494Z" fill="white"/>
<path d="M257.411 34.0264C257.051 34.0292 256.694 33.9583 256.362 33.8183C256.03 33.6782 255.73 33.4718 255.481 33.2118C255.228 32.9781 255.025 32.6957 254.884 32.3817L254.791 32.1638L254.604 32.309C253.13 33.4505 251.164 34.0264 248.762 34.0264C246.499 34.0244 244.287 33.3516 242.407 32.0931C240.526 30.8347 239.061 29.047 238.195 26.9559C237.33 24.8649 237.105 22.5643 237.547 20.345C237.989 18.1257 239.078 16.0872 240.679 14.4871C242.279 12.887 244.317 11.7971 246.537 11.3551C248.756 10.9131 251.056 11.1389 253.147 12.004C255.238 12.869 257.026 14.3344 258.285 16.2151C259.543 18.0958 260.216 20.3073 260.218 22.5702V31.2765C260.225 31.6406 260.155 32.002 260.013 32.3372C259.87 32.6724 259.659 32.9739 259.393 33.2222C259.144 33.4799 258.844 33.6842 258.513 33.8225C258.182 33.9607 257.827 34.0301 257.468 34.0264H257.411ZM248.762 16.6708C247.396 16.666 246.071 17.1353 245.013 17.9985C243.954 18.8617 243.228 20.0653 242.958 21.4041C242.688 22.7429 242.891 24.1339 243.532 25.3398C244.173 26.5456 245.213 27.4917 246.474 28.0165C247.735 28.5413 249.139 28.6124 250.446 28.2177C251.754 27.8229 252.884 26.9868 253.643 25.8519C254.403 24.717 254.746 23.3536 254.612 21.9944C254.479 20.6352 253.878 19.3643 252.913 18.3986C252.375 17.8431 251.729 17.4033 251.015 17.1062C250.302 16.8091 249.535 16.6609 248.762 16.6708Z" fill="white"/>
<path d="M40.8628 24.1214V14.4811C40.8628 9.98781 35.2644 9.48453 35.2644 14.3929V23.7322C35.2644 26.4666 31.2848 26.6897 31.2848 24.0435V13.0438C31.2848 8.98123 24.5398 7.50769 24.5398 13.2462V24.469C24.5398 28.2099 19.3512 29.5641 19.3512 24.9308L19.4187 12.551C19.4187 6.66717 10.7123 6.112 10.7123 13.3292V27.7844C10.7123 35.1729 19.8597 39.8478 27.6373 32.9989C30.4495 35.7592 40.8628 34.5503 40.8628 24.1214Z" fill="#41F28C"/>
<path d="M101.138 34.0264C99.3512 34.0344 97.5875 33.6244 95.9875 32.8292C94.3876 32.0339 92.9959 30.8755 91.9235 29.4465C90.8511 28.0175 90.1278 26.3574 89.8114 24.599C89.495 22.8406 89.5943 21.0326 90.1013 19.3194C90.6083 17.6062 91.509 16.0353 92.7313 14.7323C93.9537 13.4292 95.4639 12.4301 97.1413 11.8148C98.8186 11.1995 100.617 10.9851 102.392 11.1886C104.167 11.3921 105.87 12.008 107.364 12.987C109.183 14.1577 110.625 15.8299 111.515 17.8019C111.69 18.1607 111.782 18.5544 111.785 18.9538C111.783 19.2821 111.721 19.6073 111.603 19.9136C111.482 20.2598 111.291 20.5771 111.041 20.8451C110.791 21.1132 110.487 21.326 110.15 21.4702L103.109 24.6456L97.5525 27.1672L97.2827 27.2917L97.511 27.4785C98.5482 28.2469 99.8237 28.6236 101.112 28.5421C102.205 28.5401 103.276 28.2355 104.206 27.6623C105.137 27.089 105.89 26.2694 106.383 25.2942L106.409 25.2474C107.12 23.8465 108.303 23.006 109.585 23.006C109.968 22.9955 110.348 23.0772 110.693 23.2443C111.038 23.4113 111.337 23.6588 111.567 23.9659C111.819 24.361 111.973 24.8107 112.015 25.2774C112.057 25.7442 111.987 26.2143 111.811 26.6483V26.695C111.748 26.8662 111.686 27.0375 111.619 27.2139C110.718 29.2452 109.249 30.9723 107.388 32.1867C105.527 33.4011 103.355 34.0509 101.133 34.0575L101.138 34.0264ZM101.138 16.7071C99.7181 16.7015 98.3442 17.2094 97.2695 18.1373C96.1948 19.0651 95.4919 20.3502 95.2904 21.7556L95.2488 22.0876L104.77 17.8123L104.516 17.6255C103.519 16.9611 102.334 16.6387 101.138 16.7071Z" fill="white"/>
</svg>
