<svg width="195" height="34" viewBox="0 0 195 34" fill="none" xmlns="http://www.w3.org/2000/svg">
<path d="M26.9401 1.85243L14.1837 0.230093C13.9692 0.194995 13.7937 0.171599 13.4895 0.136501C12.6396 0.00495467 11.7776 -0.0316684 10.9195 0.0273058C4.8826 0.530385 0 6.53223 0 10.592V24.3038C0 27.451 3.34996 33.6322 9.74959 33.2734C10.2293 33.2461 10.8026 33.1954 10.9936 33.1603C11.641 33.0355 12.1051 32.9575 12.9436 32.8015L27.0571 30.1224C31.7369 29.2644 33.8818 23.7617 33.9247 20.1271V8.53284C33.9364 4.6642 30.9608 2.35551 26.9401 1.85243ZM32.7898 19.8814C32.7898 23.4458 30.5747 28.2777 26.32 29.0967L13.2673 31.4873C7.80748 32.5793 3.10818 27.2287 3.10818 23.6642V11.0132C3.10818 6.72333 8.38467 0.908663 14.4684 1.43514L26.3395 2.99508C30.1887 3.53325 32.7976 5.57677 32.7976 9.14512L32.7898 19.8814Z" fill="#1EC781"/>
<path d="M94.6959 25.5753C92.4191 25.5701 90.2366 24.6656 88.6237 23.0586C87.0109 21.4516 86.0984 19.2723 86.085 16.9956V4.51614C86.0861 3.96828 86.3042 3.44315 86.6916 3.05575C87.079 2.66835 87.6041 2.45025 88.152 2.44922H88.1948C88.7427 2.45025 89.2678 2.66835 89.6552 3.05575C90.0426 3.44315 90.2607 3.96828 90.2618 4.51614V9.44553L90.4723 9.31683C91.5526 8.67335 92.9721 8.34577 94.6959 8.34577C96.9796 8.34577 99.1698 9.25299 100.785 10.8678C102.399 12.4827 103.307 14.6729 103.307 16.9566C103.307 19.2404 102.399 21.4306 100.785 23.0454C99.1698 24.6602 96.9796 25.5675 94.6959 25.5675V25.5753ZM94.6959 12.5576C93.6673 12.5524 92.6689 12.9042 91.8709 13.5531C91.0729 14.202 90.5248 15.1077 90.3201 16.1157C90.1155 17.1237 90.267 18.1714 90.7488 19.0801C91.2306 19.9888 92.0128 20.7022 92.9619 21.0985C93.911 21.4947 94.9683 21.5493 95.9532 21.253C96.9381 20.9566 97.7896 20.3276 98.3625 19.4734C98.9353 18.6191 99.1939 17.5925 99.0942 16.5688C98.9945 15.5452 98.5427 14.5878 97.8157 13.8601C97.4123 13.4414 96.9273 13.1097 96.3907 12.8857C95.8541 12.6617 95.2773 12.55 94.6959 12.5576Z" fill="#505050"/>
<path d="M128.644 25.5752C128.098 25.5691 127.575 25.3494 127.189 24.9631C126.803 24.5768 126.583 24.0546 126.577 23.5083V15.5994C126.577 14.7834 126.253 14.0007 125.676 13.4237C125.099 12.8466 124.316 12.5224 123.5 12.5224C122.684 12.5224 121.901 12.8466 121.324 13.4237C120.747 14.0007 120.423 14.7834 120.423 15.5994V23.5083C120.415 24.0533 120.195 24.5738 119.81 24.9596C119.425 25.3453 118.905 25.5661 118.36 25.5752C118.082 25.5804 117.806 25.5288 117.548 25.4236C117.291 25.3183 117.057 25.1615 116.863 24.9629C116.663 24.7777 116.505 24.5523 116.4 24.3015C116.294 24.0507 116.243 23.7803 116.25 23.5083V15.5994C116.25 14.7854 115.927 14.0048 115.351 13.4292C114.776 12.8536 113.995 12.5302 113.181 12.5302C112.367 12.5302 111.586 12.8536 111.011 13.4292C110.435 14.0048 110.112 14.7854 110.112 15.5994V23.5083C110.118 23.7815 110.066 24.053 109.959 24.3046C109.853 24.5561 109.693 24.7819 109.492 24.9668C109.305 25.1618 109.08 25.3164 108.831 25.421C108.583 25.5257 108.315 25.5781 108.045 25.5752H108.002C107.731 25.5773 107.463 25.524 107.214 25.4187C106.964 25.3135 106.739 25.1583 106.551 24.9629C106.351 24.7779 106.193 24.5526 106.087 24.3018C105.981 24.051 105.929 23.7806 105.935 23.5083V15.5994C105.938 13.6786 106.703 11.8374 108.061 10.4792C109.419 9.12099 111.26 8.35661 113.181 8.35352C115.33 8.35352 117.034 9.01649 118.251 10.3034L118.356 10.4165L118.458 10.3034C119.655 8.99699 121.355 8.35352 123.504 8.35352C125.425 8.35661 127.266 9.12099 128.624 10.4792C129.982 11.8374 130.747 13.6786 130.75 15.5994V23.5083C130.754 23.7788 130.703 24.0474 130.6 24.2975C130.496 24.5476 130.343 24.7741 130.149 24.9629C129.959 25.1592 129.731 25.3147 129.479 25.4199C129.227 25.5252 128.956 25.578 128.683 25.5752H128.644Z" fill="#505050"/>
<path d="M57.1014 25.575C54.9526 25.575 53.2484 24.912 52.0317 23.6251L51.9264 23.512L51.825 23.6251C50.6277 24.9315 48.9274 25.575 46.7786 25.575C44.8578 25.5719 43.0166 24.8075 41.6584 23.4493C40.3002 22.0911 39.5358 20.2499 39.5327 18.3291V10.4202C39.5284 10.1502 39.5795 9.88219 39.6828 9.63268C39.7861 9.38317 39.9394 9.15747 40.1332 8.96949C40.3225 8.77198 40.5503 8.61538 40.8026 8.5094C41.0548 8.40342 41.326 8.3503 41.5996 8.3533C41.8778 8.34435 42.1546 8.39505 42.4116 8.502C42.6686 8.60895 42.8996 8.76967 43.0893 8.97337C43.2847 9.15956 43.4393 9.38432 43.5434 9.63337C43.6474 9.88242 43.6987 10.1503 43.6938 10.4202V18.3291C43.6938 19.1452 44.018 19.9278 44.595 20.5048C45.1721 21.0819 45.9547 21.406 46.7708 21.406C47.5868 21.406 48.3695 21.0819 48.9465 20.5048C49.5236 19.9278 49.8477 19.1452 49.8477 18.3291V10.4202C49.8558 9.87521 50.0756 9.35472 50.4606 8.96894C50.8457 8.58315 51.3658 8.36236 51.9108 8.3533C52.1893 8.34786 52.4659 8.39976 52.7236 8.50576C52.9812 8.61176 53.2142 8.7696 53.4083 8.96949C53.608 9.15361 53.7659 9.37833 53.8715 9.62856C53.9771 9.87879 54.0279 10.1487 54.0206 10.4202V18.3291C54.0206 18.7321 54.0999 19.1312 54.2542 19.5036C54.4084 19.876 54.6345 20.2143 54.9195 20.4993C55.2045 20.7843 55.5428 21.0104 55.9152 21.1646C56.2876 21.3189 56.6867 21.3983 57.0897 21.3983C57.4928 21.3983 57.8919 21.3189 58.2643 21.1646C58.6366 21.0104 58.975 20.7843 59.26 20.4993C59.545 20.2143 59.771 19.876 59.9253 19.5036C60.0795 19.1312 60.1589 18.7321 60.1589 18.3291V10.4202C60.1524 10.147 60.2044 9.87548 60.3113 9.62394C60.4183 9.3724 60.5777 9.1466 60.779 8.96168C60.9657 8.76669 61.1905 8.61209 61.4393 8.50745C61.6882 8.40281 61.9559 8.35035 62.2258 8.3533H62.2687C62.5398 8.35128 62.8085 8.40491 63.058 8.5109C63.3075 8.61689 63.5327 8.77298 63.7195 8.96949C63.9196 9.15341 64.0782 9.37799 64.1844 9.6282C64.2907 9.87841 64.3423 10.1485 64.3356 10.4202V18.3291C64.3325 20.2499 63.5681 22.0911 62.2099 23.4493C60.8517 24.8075 59.0105 25.5719 57.0897 25.575H57.1014Z" fill="#505050"/>
<path d="M148.479 25.5752C148.208 25.5773 147.939 25.524 147.69 25.4188C147.441 25.3135 147.215 25.1584 147.028 24.9629C146.838 24.7873 146.685 24.575 146.579 24.339L146.509 24.1752L146.369 24.2844C145.261 25.1423 143.783 25.5752 141.978 25.5752C140.277 25.5737 138.614 25.068 137.201 24.1221C135.787 23.1762 134.686 21.8325 134.036 20.2608C133.385 18.6892 133.216 16.96 133.548 15.2919C133.88 13.6238 134.699 12.0916 135.902 10.8889C137.105 9.68623 138.637 8.86703 140.305 8.53483C141.973 8.20263 143.702 8.37235 145.274 9.02252C146.846 9.6727 148.189 10.7742 149.135 12.1877C150.081 13.6013 150.587 15.2635 150.588 16.9644V23.5083C150.593 23.7819 150.541 24.0536 150.434 24.3055C150.327 24.5575 150.168 24.7842 149.968 24.9708C149.781 25.1645 149.556 25.318 149.307 25.4219C149.058 25.5258 148.791 25.578 148.521 25.5752H148.479ZM141.962 12.5303C140.935 12.5267 139.939 12.8794 139.144 13.5282C138.348 14.177 137.803 15.0817 137.6 16.0879C137.397 17.0942 137.549 18.1397 138.031 19.0461C138.513 19.9525 139.295 20.6635 140.242 21.058C141.19 21.4525 142.245 21.5059 143.228 21.2092C144.211 20.9125 145.06 20.284 145.631 19.431C146.202 18.578 146.46 17.5532 146.359 16.5316C146.259 15.51 145.808 14.5548 145.082 13.8289C144.678 13.4114 144.192 13.0808 143.656 12.8575C143.119 12.6342 142.543 12.5228 141.962 12.5303Z" fill="#505050"/>
<path d="M165.685 25.5752C165.411 25.5781 165.139 25.5253 164.887 25.4201C164.634 25.3148 164.405 25.1593 164.214 24.9629C164.017 24.7765 163.86 24.5508 163.755 24.3003C163.649 24.0498 163.597 23.78 163.602 23.5083V15.6423C163.646 15.2085 163.598 14.7704 163.462 14.3562C163.326 13.942 163.104 13.561 162.812 13.2377C162.519 12.9144 162.162 12.6559 161.764 12.4791C161.365 12.3022 160.934 12.2108 160.498 12.2108C160.062 12.2108 159.631 12.3022 159.232 12.4791C158.834 12.6559 158.477 12.9144 158.184 13.2377C157.892 13.561 157.67 13.942 157.534 14.3562C157.398 14.7704 157.35 15.2085 157.394 15.6423V23.5083C157.399 23.7819 157.346 24.0535 157.239 24.3055C157.132 24.5575 156.974 24.7841 156.774 24.9707C156.586 25.1644 156.361 25.318 156.112 25.4219C155.864 25.5258 155.596 25.578 155.327 25.5752H155.284C155.013 25.5773 154.745 25.524 154.495 25.4187C154.246 25.3135 154.02 25.1583 153.833 24.9629C153.633 24.7779 153.475 24.5526 153.369 24.3018C153.262 24.051 153.211 23.7806 153.217 23.5083V15.6423C153.217 13.7113 153.984 11.8593 155.349 10.4939C156.715 9.12841 158.567 8.36133 160.498 8.36133C162.429 8.36133 164.281 9.12841 165.646 10.4939C167.012 11.8593 167.779 13.7113 167.779 15.6423V23.5083C167.773 24.0546 167.553 24.5768 167.167 24.9631C166.78 25.3494 166.258 25.5691 165.712 25.5752H165.685Z" fill="#505050"/>
<path d="M173.055 25.5751C172.782 25.578 172.51 25.5252 172.257 25.42C172.005 25.3147 171.776 25.1592 171.585 24.9628C171.387 24.7764 171.231 24.5507 171.125 24.3002C171.02 24.0497 170.968 23.7799 170.973 23.5082V10.4359C170.977 9.88485 171.198 9.35754 171.587 8.96787C171.977 8.57821 172.504 8.35749 173.055 8.35341C173.333 8.34501 173.609 8.396 173.865 8.50293C174.122 8.60987 174.352 8.77028 174.541 8.97347C174.737 9.16298 174.892 9.39045 174.996 9.64192C175.101 9.89339 175.153 10.1636 175.15 10.4359V23.5082C175.142 24.0538 174.921 24.5749 174.535 24.9608C174.149 25.3467 173.628 25.567 173.083 25.5751H173.055ZM173.055 7.13666C172.668 7.14146 172.286 7.05019 171.943 6.87104C171.6 6.6919 171.307 6.43047 171.09 6.11017C170.873 5.78986 170.738 5.42067 170.699 5.03569C170.659 4.6507 170.716 4.26193 170.863 3.9042C171.011 3.54647 171.245 3.23095 171.545 2.98589C171.844 2.74084 172.2 2.5739 172.58 2.50004C172.96 2.42618 173.352 2.4477 173.722 2.56267C174.091 2.67764 174.426 2.88247 174.697 3.15882C174.922 3.36719 175.101 3.62083 175.221 3.90312C175.342 4.1854 175.401 4.48995 175.395 4.79676C175.389 5.41545 175.141 6.00707 174.703 6.44457C174.266 6.88207 173.674 7.13056 173.055 7.13666Z" fill="#505050"/>
<path d="M192.89 25.5752C192.619 25.5773 192.351 25.524 192.101 25.4188C191.852 25.3135 191.627 25.1584 191.439 24.9629C191.249 24.7873 191.097 24.575 190.991 24.339L190.92 24.1752L190.78 24.2844C189.673 25.1423 188.194 25.5752 186.389 25.5752C184.688 25.5737 183.026 25.068 181.612 24.1221C180.199 23.1762 179.097 21.8325 178.447 20.2608C177.797 18.6892 177.627 16.96 177.959 15.2919C178.291 13.6238 179.111 12.0916 180.313 10.8889C181.516 9.68623 183.048 8.86703 184.716 8.53483C186.384 8.20263 188.114 8.37235 189.685 9.02252C191.257 9.6727 192.601 10.7742 193.547 12.1877C194.492 13.6013 194.998 15.2635 195 16.9644V23.5083C195.005 23.7819 194.952 24.0536 194.845 24.3055C194.738 24.5575 194.58 24.7842 194.38 24.9708C194.192 25.1645 193.967 25.318 193.718 25.4219C193.47 25.5258 193.202 25.578 192.933 25.5752H192.89ZM186.389 12.5303C185.362 12.5267 184.366 12.8794 183.571 13.5282C182.775 14.177 182.23 15.0817 182.027 16.0879C181.824 17.0942 181.976 18.1397 182.458 19.0461C182.94 19.9525 183.722 20.6635 184.669 21.058C185.617 21.4525 186.672 21.5059 187.655 21.2092C188.638 20.9125 189.487 20.284 190.058 19.431C190.629 18.578 190.886 17.5532 190.786 16.5316C190.686 15.51 190.235 14.5548 189.509 13.8289C189.105 13.4114 188.619 13.0808 188.083 12.8575C187.546 12.6342 186.97 12.5228 186.389 12.5303Z" fill="#505050"/>
<path d="M30.1263 18.1303V10.8844C30.1263 7.50711 25.9184 7.12883 25.9184 10.8181V17.8378C25.9184 19.893 22.9272 20.0607 22.9272 18.0718V9.80411C22.9272 6.75053 17.8574 5.64299 17.8574 9.95621V18.3916C17.8574 21.2033 13.9576 22.2212 13.9576 18.7386L14.0083 9.43364C14.0083 5.01123 7.46434 4.59394 7.46434 10.0186V20.8836C7.46434 26.4369 14.3398 29.9507 20.1856 24.8029C22.2993 26.8776 30.1263 25.9689 30.1263 18.1303Z" fill="#1EC781"/>
<path d="M75.4306 25.5751C74.0877 25.5811 72.7621 25.2729 71.5595 24.6752C70.357 24.0775 69.3109 23.2068 68.5049 22.1327C67.6988 21.0586 67.1552 19.8109 66.9174 18.4892C66.6796 17.1676 66.7542 15.8086 67.1353 14.5209C67.5163 13.2332 68.1933 12.0525 69.1121 11.0731C70.0308 10.0937 71.1659 9.34274 72.4267 8.88027C73.6874 8.41779 75.0389 8.25659 76.373 8.40957C77.7072 8.56254 78.9871 9.02544 80.1104 9.76128C81.4779 10.6412 82.5615 11.8981 83.2303 13.3803C83.3621 13.65 83.4314 13.9459 83.4331 14.2461C83.4316 14.4929 83.3854 14.7373 83.2966 14.9675C83.206 15.2278 83.062 15.4663 82.874 15.6677C82.686 15.8692 82.458 16.0292 82.2046 16.1375L76.9126 18.5242L72.7358 20.4195L72.533 20.5131L72.7046 20.6535C73.4842 21.2311 74.4429 21.5142 75.4111 21.453C76.2325 21.4514 77.0375 21.2225 77.7368 20.7916C78.4362 20.3608 79.0026 19.7447 79.3734 19.0117L79.3928 18.9766C79.9271 17.9236 80.8163 17.2919 81.7795 17.2919C82.0675 17.284 82.3531 17.3454 82.6124 17.471C82.8716 17.5965 83.0969 17.7825 83.2693 18.0133C83.4588 18.3103 83.5743 18.6483 83.6062 18.9991C83.6381 19.3499 83.5854 19.7033 83.4526 20.0296V20.0646C83.4058 20.1933 83.359 20.322 83.3083 20.4546C82.6314 21.9814 81.5269 23.2796 80.1283 24.1923C78.7297 25.1051 77.0968 25.5935 75.4267 25.5985L75.4306 25.5751ZM75.4306 12.5575C74.3635 12.5532 73.3308 12.935 72.5231 13.6324C71.7153 14.3298 71.187 15.2957 71.0355 16.352L71.0043 16.6016L78.1605 13.3881L77.9694 13.2477C77.2204 12.7483 76.3294 12.5061 75.4306 12.5575Z" fill="#505050"/>
</svg>
