<svg width="30" height="30" viewBox="0 0 30 30" fill="none" xmlns="http://www.w3.org/2000/svg">
<path fill-rule="evenodd" clip-rule="evenodd" d="M9.375 3.75H20.63C23.7337 3.75 26.25 6.26625 26.25 9.37V20.6313C26.25 23.7338 23.7337 26.25 20.63 26.25H9.37C6.26625 26.25 3.75 23.7337 3.75 20.63V9.375C3.75 6.26875 6.26875 3.75 9.375 3.75V3.75Z" stroke="#29AB67" stroke-width="1.5" stroke-linecap="round" stroke-linejoin="round"/>
<path d="M22.0625 13.1875C22.0625 12.7733 21.7267 12.4375 21.3125 12.4375C20.8983 12.4375 20.5625 12.7733 20.5625 13.1875H22.0625ZM8.41809 18.7451C8.17374 18.4106 7.70451 18.3376 7.37005 18.5819C7.03559 18.8263 6.96255 19.2955 7.20691 19.6299L8.41809 18.7451ZM7.69553 18.4467C7.28638 18.5113 7.00708 18.8953 7.07168 19.3045C7.13628 19.7136 7.52033 19.9929 7.92947 19.9283L7.69553 18.4467ZM10.0625 18.4375L10.3009 19.1486C10.5464 19.0663 10.7321 18.8631 10.7921 18.6112C10.8521 18.3593 10.7778 18.0942 10.5957 17.9101L10.0625 18.4375ZM9.3125 9.4375L9.97312 9.08241C9.85052 8.85434 9.61895 8.70563 9.36055 8.68904C9.10215 8.67245 8.85346 8.79033 8.70271 9.00085L9.3125 9.4375ZM13.8125 13.1875L13.6352 13.9162C13.8546 13.9696 14.0864 13.9213 14.2662 13.7847C14.446 13.6481 14.5547 13.4378 14.5621 13.2122L13.8125 13.1875ZM20.5625 10.9375L19.9365 11.3506C20.0753 11.5609 20.3105 11.6875 20.5625 11.6875V10.9375ZM22.8125 10.9375L23.4365 11.3535C23.59 11.1234 23.6043 10.8275 23.4738 10.5836C23.3432 10.3397 23.0891 10.1875 22.8125 10.1875V10.9375ZM20.6885 12.7715C20.4587 13.1161 20.5518 13.5818 20.8965 13.8115C21.2411 14.0413 21.7068 13.9482 21.9365 13.6035L20.6885 12.7715ZM20.5625 13.1875C20.5625 15.6745 19.8526 17.7335 18.5939 19.16C17.3454 20.5749 15.4968 21.4375 13.0625 21.4375V22.9375C15.8782 22.9375 18.1546 21.9251 19.7186 20.1525C21.2724 18.3915 22.0625 15.9505 22.0625 13.1875H20.5625ZM13.0625 21.4375C11.7071 21.4375 10.8101 21.0882 10.1386 20.6129C9.44411 20.1215 8.94546 19.4669 8.41809 18.7451L7.20691 19.6299C7.72704 20.3419 8.35339 21.1872 9.27207 21.8374C10.2137 22.5037 11.4179 22.9375 13.0625 22.9375V21.4375ZM7.92947 19.9283C7.95587 19.9242 7.97627 19.9194 7.98308 19.9179C7.99253 19.9157 8.00013 19.9137 8.00463 19.9125C8.01363 19.9101 8.02089 19.908 8.02451 19.907C8.03224 19.9047 8.03909 19.9026 8.04315 19.9014C8.052 19.8986 8.062 19.8954 8.0716 19.8923C8.09144 19.886 8.11831 19.8772 8.15028 19.8667C8.21461 19.8455 8.30445 19.8157 8.41066 19.7804C8.62333 19.7097 8.90431 19.616 9.18417 19.5224C9.46412 19.4288 9.74329 19.3354 9.95244 19.2653C10.057 19.2303 10.1441 19.2011 10.2051 19.1807C10.2356 19.1705 10.2595 19.1625 10.2758 19.157C10.284 19.1543 10.2902 19.1522 10.2945 19.1508C10.2966 19.1501 10.2982 19.1495 10.2992 19.1492C10.2998 19.149 10.3002 19.1488 10.3005 19.1487C10.3006 19.1487 10.3007 19.1487 10.3008 19.1486C10.3008 19.1486 10.3008 19.1486 10.3008 19.1486C10.3009 19.1486 10.3009 19.1486 10.0625 18.4375C9.82413 17.7264 9.82412 17.7264 9.82411 17.7264C9.82409 17.7264 9.82407 17.7264 9.82403 17.7264C9.82397 17.7264 9.82386 17.7265 9.82373 17.7265C9.82346 17.7266 9.82306 17.7267 9.82253 17.7269C9.82146 17.7273 9.81987 17.7278 9.81776 17.7285C9.81356 17.7299 9.80731 17.732 9.79916 17.7348C9.78287 17.7402 9.75896 17.7482 9.72851 17.7584C9.66762 17.7788 9.58061 17.808 9.47611 17.843C9.2671 17.913 8.98822 18.0063 8.70864 18.0998C8.42897 18.1933 8.14894 18.2867 7.9375 18.357C7.83166 18.3922 7.74368 18.4214 7.68172 18.4417C7.65054 18.452 7.62714 18.4596 7.61176 18.4646C7.60376 18.4671 7.5999 18.4684 7.59894 18.4687C7.59809 18.4689 7.60104 18.468 7.60591 18.4666C7.6081 18.4659 7.61419 18.4642 7.62229 18.462C7.62633 18.461 7.63355 18.4591 7.64267 18.457C7.64916 18.4555 7.66931 18.4508 7.69553 18.4467L7.92947 19.9283ZM10.5957 17.9101C8.35289 15.6426 8.18569 12.2993 9.92229 9.87415L8.70271 9.00085C6.54931 12.0082 6.76211 16.1674 9.52928 18.9649L10.5957 17.9101ZM8.65188 9.79259C9.64757 11.645 11.5228 13.4024 13.6352 13.9162L13.9898 12.4588C12.3922 12.0701 10.8224 10.6625 9.97312 9.08241L8.65188 9.79259ZM14.5621 13.2122C14.5923 12.2932 14.9161 11.5416 15.422 11.0247C15.9238 10.5119 16.6458 10.1875 17.5625 10.1875V8.6875C16.2705 8.6875 15.1531 9.15494 14.3499 9.97557C13.5508 10.7921 13.1039 11.9155 13.0629 13.1628L14.5621 13.2122ZM17.5625 10.1875C18.2174 10.1875 18.6881 10.3118 19.044 10.5018C19.3984 10.691 19.6853 10.9699 19.9365 11.3506L21.1885 10.5244C20.8285 9.97888 20.3672 9.50778 19.7504 9.17852C19.1351 8.85008 18.4114 8.6875 17.5625 8.6875V10.1875ZM20.5625 11.6875H22.8125V10.1875H20.5625V11.6875ZM22.1885 10.5215L20.6885 12.7715L21.9365 13.6035L23.4365 11.3535L22.1885 10.5215Z" fill="white"/>
</svg>
