<svg width="43" height="31" viewBox="0 0 43 31" fill="none" xmlns="http://www.w3.org/2000/svg">
<path d="M6.82227 9.17188C5.35742 11.2227 4.625 13.332 4.625 15.5C4.625 17.668 5.35742 19.8066 6.82227 21.916C8.28711 23.9668 10.0449 25.373 12.0957 26.1348V30.002C8.81445 29.1816 6.11914 27.4238 4.00977 24.7285C1.90039 22.0332 0.845703 18.957 0.845703 15.5C0.845703 12.043 1.90039 8.9668 4.00977 6.27148C6.11914 3.57617 8.81445 1.81836 12.0957 0.998047V4.86523C10.0449 5.62695 8.28711 7.0625 6.82227 9.17188ZM19.127 23.498C21.3535 25.666 24.0195 26.75 27.125 26.75C30.2305 26.75 32.8672 25.666 35.0352 23.498C37.2617 21.2715 38.375 18.6055 38.375 15.5C38.375 12.3945 37.2617 9.75781 35.0352 7.58984C32.8672 5.36328 30.2305 4.25 27.125 4.25C24.0195 4.25 21.3535 5.36328 19.127 7.58984C16.959 9.75781 15.875 12.3945 15.875 15.5C15.875 18.6055 16.959 21.2715 19.127 23.498ZM16.4902 4.95312C19.4785 1.96484 23.0234 0.470703 27.125 0.470703C31.2266 0.470703 34.7422 1.96484 37.6719 4.95312C40.6602 7.88281 42.1543 11.3984 42.1543 15.5C42.1543 19.6016 40.6602 23.1465 37.6719 26.1348C34.7422 29.0645 31.2266 30.5293 27.125 30.5293C23.0234 30.5293 19.4785 29.0645 16.4902 26.1348C13.5605 23.1465 12.0957 19.6016 12.0957 15.5C12.0957 11.3984 13.5605 7.88281 16.4902 4.95312Z" fill="white"/>
</svg>
