<svg width="172" height="175" viewBox="0 0 172 175" fill="none" xmlns="http://www.w3.org/2000/svg">
<g clip-path="url(#clip0)">
<path d="M86 174.6C133.496 174.6 172 135.514 172 87.3C172 39.0855 133.496 0 86 0C38.5035 0 0 39.0855 0 87.3C0 135.514 38.5035 174.6 86 174.6Z" fill="#48A0DC"/>
<path d="M127.197 56.2099L129 38.1934H83.7103H37.625L39.8261 56.2099H83.7103H86.1774L83.7103 57.2493L41.4305 75.0449L42.8334 92.6604L83.7103 92.7913L105.621 92.8623L104.219 116.349L83.7103 122.181V122.162L83.5436 122.211L63.7394 117.159L62.5381 102.58H62.4709H44.0992H44.0374L46.44 130.726L83.7103 141.865V141.843L83.7801 141.865L120.851 130.928L125.662 75.0449H83.7103H83.6081L83.7103 74.9985L127.197 56.2099Z" fill="white"/>
</g>
<defs>
<clipPath id="clip0">
<rect width="172" height="174.6" fill="white"/>
</clipPath>
</defs>
</svg>
