<svg width="31" height="41" viewBox="0 0 31 41" fill="none" xmlns="http://www.w3.org/2000/svg">
<path d="M14.9727 34.5957C17.4922 34.5957 19.6016 33.7461 21.3008 32.0469C23.0586 30.2891 23.9375 28.1504 23.9375 25.6309C23.9375 23.0527 23.5859 20.5332 22.8828 18.0723C21.0664 20.4746 18.166 22.0859 14.1816 22.9062C10.666 23.668 8.9082 25.6016 8.9082 28.707C8.9082 30.3477 9.49414 31.7539 10.666 32.9258C11.8379 34.0391 13.2734 34.5957 14.9727 34.5957ZM18.3125 0.230469C22.0625 3.27734 25.0215 6.99805 27.1895 11.3926C29.416 15.7285 30.5293 20.3574 30.5293 25.2793C30.5293 29.3809 29.0645 32.8965 26.1348 35.8262C23.2051 38.7559 19.6602 40.2207 15.5 40.2207C11.3398 40.2207 7.79492 38.7559 4.86523 35.8262C1.93555 32.8965 0.470703 29.3809 0.470703 25.2793C0.470703 18.9512 2.49219 13.3848 6.53516 8.58008V9.2832C6.53516 11.2168 7.17969 12.8574 8.46875 14.2051C9.75781 15.5527 11.3691 16.2266 13.3027 16.2266C15.1777 16.2266 16.7012 15.582 17.873 14.293C19.1035 12.9453 19.7188 11.2754 19.7188 9.2832C19.7188 8.11133 19.6016 6.76367 19.3672 5.24023C19.1328 3.7168 18.8984 2.51562 18.6641 1.63672L18.3125 0.230469Z" fill="white"/>
</svg>
