<svg width="172" height="173" viewBox="0 0 172 173" fill="none" xmlns="http://www.w3.org/2000/svg">
<path d="M88.3469 100.546H101.461L100.228 114.372L88.3469 117.586H88.333L76.4623 114.372L75.6801 105.505H64.9759L66.5056 122.615L88.333 128.671L88.3469 128.664L110.185 122.615L113.104 89.8971H88.3469H74.2796L73.3052 78.99H88.3469H114.075L115.029 68.3379H88.3469H61.6616L64.5393 100.546H88.3469Z" fill="#FF3D00"/>
<path d="M86 0.716797C38.5036 0.716797 0 39.2285 0 86.7195C0 134.217 38.5001 172.715 86 172.715C133.503 172.715 172 134.217 172 86.7195C172 39.2285 133.5 0.716797 86 0.716797ZM110.01 27.2702H115.427V38.1214H123.04V43.4684H110.014V27.2702H110.01ZM89.0803 27.2702H94.7205L98.1919 32.9595L101.663 27.2702H107.311V43.4719H101.915V35.4427L98.1919 41.1983H98.1046L94.3747 35.4427V43.4719H89.0803V27.2702ZM71.758 27.2702H86.709V32.6452H81.9349V43.4719H76.5252V32.6452H71.758V27.2702ZM53.6221 27.2702H59.0353V32.6242H63.9875V27.2702H69.4042V43.4719H63.9875V38.0481H59.0353V43.4719H53.6221V27.2702ZM123.128 137.451L88.3259 147.105L53.5627 137.444L45.8166 50.5791H130.874L123.128 137.451Z" fill="#FF3D00"/>
</svg>
