<svg width="172" height="175" viewBox="0 0 172 175" fill="none" xmlns="http://www.w3.org/2000/svg">
<path d="M86 174.6C133.496 174.6 172 135.514 172 87.3C172 39.0855 133.496 0 86 0C38.5035 0 0 39.0855 0 87.3C0 135.514 38.5035 174.6 86 174.6Z" fill="#F0DB4F"/>
<path d="M59.1681 53.4258H74.1321V96.2028C74.1321 115.409 65.0161 122.218 50.5681 122.218C46.9561 122.218 42.4841 121.694 39.5601 120.647L41.2801 108.25C43.3441 108.949 46.0961 109.472 49.0201 109.472C55.3841 109.472 59.3401 106.504 59.3401 96.2028L59.1681 53.4258Z" fill="white"/>
<path d="M87.376 105.457C91.332 107.553 97.696 109.648 104.06 109.648C110.94 109.648 114.552 106.68 114.552 102.14C114.552 97.9495 111.456 95.5051 103.372 92.7115C92.364 88.6957 84.968 82.4101 84.968 72.4579C84.968 61.1089 94.6 52.3789 110.252 52.3789C117.82 52.3789 123.324 53.9503 127.28 55.8709L123.84 68.0929C121.26 66.8707 116.444 64.9501 110.08 64.9501C103.544 64.9501 100.448 68.0929 100.448 71.4103C100.448 75.7753 104.06 77.6959 112.832 81.0133C124.528 85.3783 130.032 91.6639 130.032 101.267C130.032 112.616 121.604 122.219 103.2 122.219C95.632 122.219 88.064 120.124 84.28 118.029L87.376 105.457Z" fill="white"/>
</svg>
